<svg version="1.1" xmlns="http://www.w3.org/2000/svg" width="32" height="32" viewBox="0 0 32 32">
<path d="M16 25c7.985 0 14.507-8.033 14.78-8.375 0.292-0.365 0.293-0.882 0.002-1.248-0.262-0.33-6.335-7.828-13.989-8.329-0.261-0.029-0.524-0.048-0.793-0.048s-0.531 0.018-0.791 0.048c-7.691 0.498-13.732 8.001-13.993 8.332-0.288 0.364-0.287 0.879 0.002 1.243 0.271 0.341 6.756 8.377 14.782 8.377zM21 14c0 2.757-2.243 5-5 5s-5-2.243-5-5 2.243-5 5-5 5 2.243 5 5zM9.804 10.754c-0.511 0.971-0.804 2.074-0.804 3.246 0 3.86 3.141 7 7 7s7-3.14 7-7c0-1.166-0.291-2.265-0.797-3.233 3.064 1.676 5.454 4.101 6.475 5.232-1.649 1.822-6.851 7.001-12.678 7.001-5.847 0-11.038-5.183-12.681-7.001 1.019-1.134 3.409-3.569 6.485-5.245zM16 17c0.553 0 1-0.448 1-1s-0.447-1-1-1c-0.552 0-1-0.449-1-1s-0.447-1-1-1-1 0.448-1 1c0 1.654 1.346 3 3 3z"/>
</svg>