<svg xmlns="http://www.w3.org/2000/svg" width="24" height="25" viewBox="0 0 24 25" fill="none"><g clip-path="url(#clip0)"><path d="M9.31709 18.5957C7.74785 18.5957 6.54785 19.7987 6.54785 21.3718C6.54785 22.9449 7.74785 24.1479 9.31709 24.1479C10.8863 24.1479 12.0863 22.9449 12.0863 21.3718C12.0863 19.7987 10.8863 18.5957 9.31709 18.5957ZM9.31709 22.6673C8.57862 22.6673 8.02478 22.1121 8.02478 21.3718C8.02478 20.6315 8.57862 20.0763 9.31709 20.0763C10.0555 20.0763 10.6094 20.6315 10.6094 21.3718C10.6094 22.1121 10.0555 22.6673 9.31709 22.6673Z" fill=""/><path d="M18.548 18.5957C16.9788 18.5957 15.7788 19.7987 15.7788 21.3718C15.7788 22.9449 16.9788 24.1479 18.548 24.1479C20.1173 24.1479 21.3173 22.9449 21.3173 21.3718C21.3173 19.7987 20.1173 18.5957 18.548 18.5957ZM18.548 22.6673C17.8096 22.6673 17.2557 22.1121 17.2557 21.3718C17.2557 20.6315 17.8096 20.0763 18.548 20.0763C19.2865 20.0763 19.8403 20.6315 19.8403 21.3718C19.8403 22.1121 19.2865 22.6673 18.548 22.6673Z" fill=""/><path d="M22.0554 3.79012H6.27082L4.70159 0.0887146H1.00928V1.93942H3.50159L7.37851 11.378C6.27082 11.8407 5.53235 12.9511 5.62466 14.2466C5.80928 15.7272 7.10159 16.745 8.4862 16.745H21.317V14.8943H8.39389C7.84005 14.8943 7.47082 14.5242 7.47082 13.969C7.47082 13.4138 7.84005 13.0436 8.39389 13.0436H20.5785C21.04 13.0436 21.4093 12.766 21.5016 12.3034L22.9785 4.90054C23.0708 4.34533 22.6093 3.79012 22.0554 3.79012Z" fill=""/></g><defs><clipPath id="clip0"><rect y="0.0887146" width="24" height="24.0591" fill="white"/></clipPath></defs></svg>