<svg version="1.1" xmlns="http://www.w3.org/2000/svg" width="32" height="32" viewBox="0 0 32 32">
<path d="M25 32c0.266 0 0.52-0.105 0.707-0.293l5-5c0.391-0.391 0.391-1.023 0-1.414l-7-7c-0.391-0.391-1.023-0.391-1.414 0l-4.293 4.293-8.586-8.586 4.293-4.293c0.391-0.391 0.391-1.023 0-1.414l-7-7c-0.391-0.391-1.023-0.391-1.414 0l-5 5c-0.188 0.187-0.293 0.442-0.293 0.707 0 13.785 11.215 25 25 25zM6 3.414l5.586 5.586-4.293 4.293c-0.391 0.391-0.391 1.023 0 1.414l10 10c0.391 0.391 1.023 0.391 1.414 0l4.293-4.293 5.586 5.586-3.996 3.997c-12.358-0.218-22.369-10.229-22.586-22.586l3.996-3.997z"/>
</svg>