<svg version="1.1" xmlns="http://www.w3.org/2000/svg" width="32" height="32" viewBox="0 0 32 32">
<path d="M31.938 4.692c-0.021-0.065-0.050-0.123-0.084-0.182-0.019-0.033-0.024-0.071-0.047-0.102-0.016-0.021-0.039-0.031-0.056-0.051-0.045-0.052-0.095-0.094-0.15-0.136-0.050-0.039-0.098-0.076-0.154-0.104-0.055-0.028-0.113-0.045-0.173-0.062-0.067-0.019-0.132-0.036-0.202-0.041-0.025-0.001-0.046-0.014-0.072-0.014h-30c-0.026 0-0.047 0.013-0.072 0.015-0.070 0.005-0.135 0.021-0.202 0.040-0.060 0.018-0.118 0.034-0.173 0.062s-0.104 0.066-0.154 0.104c-0.054 0.042-0.105 0.084-0.15 0.136-0.017 0.020-0.040 0.030-0.056 0.051-0.023 0.032-0.028 0.069-0.047 0.102-0.034 0.059-0.062 0.117-0.084 0.182s-0.033 0.131-0.040 0.199c-0.004 0.038-0.022 0.070-0.022 0.109v22c0 0.553 0.448 1 1 1h30c0.552 0 1-0.447 1-1v-22c0-0.039-0.018-0.071-0.022-0.109-0.007-0.068-0.018-0.133-0.040-0.199zM27.945 6l-11.945 8.76-11.945-8.76h23.89zM2 26v-19.026l13.409 9.833c0.175 0.129 0.383 0.193 0.591 0.193s0.416-0.064 0.591-0.193l13.409-9.833v19.026h-28z"/>
</svg>