<svg version="1.1" xmlns="http://www.w3.org/2000/svg" width="32" height="32" viewBox="0 0 32 32">
<path d="M31.9 13.6c0 0 0-0.1-0.1-0.1l-6-9c-0.1-0.1-0.2-0.2-0.3-0.3 0 0 0 0 0 0v0c0 0 0 0 0 0v0 0c-0.1-0.2-0.3-0.2-0.5-0.2h-6.2c-0.4-1.2-1.5-2-2.8-2s-2.4 0.8-2.8 2h-6.2c-0.2 0-0.4 0-0.5 0.2 0 0 0 0 0 0v0c0 0 0 0 0 0v0c0 0 0 0 0 0-0.2 0.1-0.3 0.2-0.3 0.3l-6 9c0 0 0 0.1-0.1 0.1 0 0 0 0.1 0 0.1-0.1 0.1-0.1 0.2-0.1 0.3 0 2.7 3.3 5 7 5s7-2.3 7-5c0-0.1 0-0.2-0.1-0.3 0 0 0-0.1 0-0.1s0-0.1-0.1-0.1l-4.9-7.5h4.3c0.3 0.8 1 1.5 1.8 1.8v19.2h-6c-0.6 0-1 0.4-1 1s0.4 1 1 1h14c0.6 0 1-0.4 1-1s-0.4-1-1-1h-6v-19.2c0.8-0.3 1.5-1 1.8-1.8h4.3l-5 7.4c0 0 0 0.1-0.1 0.1 0 0 0 0.1 0 0.1 0 0.1-0.1 0.2-0.1 0.3 0 2.7 3.3 5 7 5s7-2.3 7-5c0.1 0 0.1-0.1 0-0.3 0 0 0 0 0 0zM7 17c-2.1 0-3.9-0.9-4.6-2h9.2c-0.7 1.1-2.5 2-4.6 2zM11.1 13h-8.2l4.1-6.2 4.1 6.2zM16 6c-0.6 0-1-0.4-1-1s0.4-1 1-1 1 0.4 1 1-0.4 1-1 1zM25 6.8l4.1 6.2h-8.3l4.2-6.2zM25 17c-2.1 0-3.9-0.9-4.6-2h9.2c-0.7 1.1-2.5 2-4.6 2z"/>
</svg>