<svg version="1.1" xmlns="http://www.w3.org/2000/svg" width="32" height="32" viewBox="0 0 32 32">
<path d="M16.326 4.689c-0.112 0.112-0.22 0.226-0.326 0.343-0.106-0.117-0.214-0.231-0.326-0.343-3.581-3.581-9.405-3.579-12.985 0-1.734 1.735-2.689 4.040-2.689 6.493s0.955 4.759 2.689 6.492l12.604 12.604c0.188 0.188 0.442 0.293 0.707 0.293s0.52-0.105 0.707-0.293l12.604-12.604c1.734-1.734 2.689-4.039 2.689-6.492 0-2.452-0.955-4.758-2.689-6.492-3.581-3.58-9.405-3.582-12.985-0.001zM27.896 16.26l-11.896 11.897-11.896-11.897c-1.357-1.357-2.104-3.159-2.104-5.078 0-1.918 0.747-3.722 2.104-5.078 1.4-1.4 3.239-2.1 5.079-2.1s3.678 0.699 5.078 2.1c0.334 0.334 0.639 0.708 0.907 1.111 0.37 0.557 1.296 0.557 1.666 0 0.268-0.403 0.573-0.777 0.907-1.111 2.802-2.801 7.357-2.8 10.157 0 1.355 1.356 2.102 3.16 2.102 5.078s-0.747 3.721-2.104 5.078z"/>
</svg>