<svg version="1.1" xmlns="http://www.w3.org/2000/svg" width="32" height="32" viewBox="0 0 32 32">
<path d="M16 0c-8.822 0-16 7.178-16 16s7.178 16 16 16 16-7.178 16-16-7.178-16-16-16zM17 29.949v-3.949c0-0.552-0.447-1-1-1s-1 0.448-1 1v3.949c-6.921-0.492-12.457-6.028-12.949-12.949h3.949c0.553 0 1-0.448 1-1s-0.447-1-1-1h-3.949c0.492-6.921 6.028-12.457 12.949-12.949v3.949c0 0.552 0.447 1 1 1s1-0.448 1-1v-3.949c6.921 0.492 12.457 6.028 12.949 12.949h-3.949c-0.553 0-1 0.448-1 1s0.447 1 1 1h3.949c-0.492 6.921-6.028 12.457-12.949 12.949zM22 15h-5.5l-5.7-7.6c-0.331-0.442-0.959-0.533-1.4-0.2-0.442 0.331-0.532 0.958-0.2 1.4l6 8c0.188 0.252 0.485 0.4 0.8 0.4h6c0.553 0 1-0.448 1-1s-0.447-1-1-1z"/>
</svg>